<svg xmlns="http://www.w3.org/2000/svg" viewBox="0 0 32 32" width="32" height="32">
  <rect width="32" height="32" rx="8" fill="#9333ea"/>

  <!-- Outer ring r=10: 6 arcs fading counter-clockwise from needle (12 o'clock) -->
  <path d="M16 6 A10 10 0 0 0 7.34 11" fill="none" stroke="white" stroke-width="2.5" opacity="0.7" stroke-linecap="round"/>
  <path d="M7.34 11 A10 10 0 0 0 7.34 21" fill="none" stroke="white" stroke-width="2.5" opacity="0.5" stroke-linecap="round"/>
  <path d="M7.34 21 A10 10 0 0 0 16 26" fill="none" stroke="white" stroke-width="2.5" opacity="0.35" stroke-linecap="round"/>
  <path d="M16 26 A10 10 0 0 0 24.66 21" fill="none" stroke="white" stroke-width="2.5" opacity="0.2" stroke-linecap="round"/>
  <path d="M24.66 21 A10 10 0 0 0 24.66 11" fill="none" stroke="white" stroke-width="2.5" opacity="0.1" stroke-linecap="round"/>
  <path d="M24.66 11 A10 10 0 0 0 16 6" fill="none" stroke="white" stroke-width="2.5" opacity="0.05" stroke-linecap="round"/>

  <!-- Middle ring r=6.5 -->
  <path d="M16 9.5 A6.5 6.5 0 0 0 10.37 12.75" fill="none" stroke="white" stroke-width="2.5" opacity="0.75" stroke-linecap="round"/>
  <path d="M10.37 12.75 A6.5 6.5 0 0 0 10.37 19.25" fill="none" stroke="white" stroke-width="2.5" opacity="0.55" stroke-linecap="round"/>
  <path d="M10.37 19.25 A6.5 6.5 0 0 0 16 22.5" fill="none" stroke="white" stroke-width="2.5" opacity="0.38" stroke-linecap="round"/>
  <path d="M16 22.5 A6.5 6.5 0 0 0 21.63 19.25" fill="none" stroke="white" stroke-width="2.5" opacity="0.22" stroke-linecap="round"/>
  <path d="M21.63 19.25 A6.5 6.5 0 0 0 21.63 12.75" fill="none" stroke="white" stroke-width="2.5" opacity="0.12" stroke-linecap="round"/>
  <path d="M21.63 12.75 A6.5 6.5 0 0 0 16 9.5" fill="none" stroke="white" stroke-width="2.5" opacity="0.05" stroke-linecap="round"/>

  <!-- Inner ring r=3 -->
  <path d="M16 13 A3 3 0 0 0 13.4 14.5" fill="none" stroke="white" stroke-width="2.5" opacity="0.8" stroke-linecap="round"/>
  <path d="M13.4 14.5 A3 3 0 0 0 13.4 17.5" fill="none" stroke="white" stroke-width="2.5" opacity="0.6" stroke-linecap="round"/>
  <path d="M13.4 17.5 A3 3 0 0 0 16 19" fill="none" stroke="white" stroke-width="2.5" opacity="0.4" stroke-linecap="round"/>
  <path d="M16 19 A3 3 0 0 0 18.6 17.5" fill="none" stroke="white" stroke-width="2.5" opacity="0.25" stroke-linecap="round"/>
  <path d="M18.6 17.5 A3 3 0 0 0 18.6 14.5" fill="none" stroke="white" stroke-width="2.5" opacity="0.12" stroke-linecap="round"/>
  <path d="M18.6 14.5 A3 3 0 0 0 16 13" fill="none" stroke="white" stroke-width="2.5" opacity="0.05" stroke-linecap="round"/>

  <!-- Sweep needle pointing up -->
  <line x1="16" y1="16" x2="16" y2="5.5" stroke="white" stroke-width="2.5" stroke-linecap="round"/>

  <!-- Blip -->
  <circle cx="20" cy="10" r="2" fill="white"/>
</svg>
